<svg width="660" height="99" viewBox="0 0 660 99" fill="none" xmlns="http://www.w3.org/2000/svg">
<path d="M102.896 5.864C113.477 5.864 121.712 8.97866 127.6 15.208C133.488 21.352 136.432 30.2693 136.432 41.96V97H115.696V42.6C115.696 36.2853 114.032 31.5493 110.704 28.392C107.461 25.1493 103.152 23.528 97.776 23.528C91.888 23.528 87.1947 25.2347 83.696 28.648C80.1973 31.976 78.448 37.0533 78.448 43.88V97H57.712V42.6C57.712 36.2853 56.176 31.5493 53.104 28.392C50.032 25.1493 45.8507 23.528 40.56 23.528C34.7573 23.528 30.1067 25.2347 26.608 28.648C23.1093 31.976 21.36 37.0533 21.36 43.88V97H0.624001V7.39999H20.72V18.408C23.4507 14.3973 27.0773 11.3253 31.6 9.19199C36.1227 6.97333 41.328 5.864 47.216 5.864C53.36 5.864 58.736 7.016 63.344 9.31999C67.952 11.5387 71.4933 14.7813 73.968 19.048C77.04 14.7813 81.0507 11.5387 86 9.31999C91.0347 7.016 96.6667 5.864 102.896 5.864ZM225.354 28.136V97H206.282V89.064C201.333 95.0373 194.165 98.024 184.778 98.024C178.293 98.024 172.405 96.5733 167.114 93.672C161.909 90.7707 157.813 86.632 154.826 81.256C151.839 75.88 150.346 69.6507 150.346 62.568C150.346 55.4853 151.839 49.256 154.826 43.88C157.813 38.504 161.909 34.3653 167.114 31.464C172.405 28.5627 178.293 27.112 184.778 27.112C193.567 27.112 200.437 29.8853 205.386 35.432V28.136H225.354ZM188.234 81.64C193.269 81.64 197.45 79.9333 200.778 76.52C204.106 73.0213 205.77 68.3707 205.77 62.568C205.77 56.7653 204.106 52.1573 200.778 48.744C197.45 45.2453 193.269 43.496 188.234 43.496C183.114 43.496 178.89 45.2453 175.562 48.744C172.234 52.1573 170.57 56.7653 170.57 62.568C170.57 68.3707 172.234 73.0213 175.562 76.52C178.89 79.9333 183.114 81.64 188.234 81.64ZM262.913 37.224C265.302 33.896 268.502 31.3787 272.513 29.672C276.609 27.9653 281.302 27.112 286.593 27.112V45.544C284.374 45.3733 282.881 45.288 282.113 45.288C276.396 45.288 271.916 46.9093 268.673 50.152C265.43 53.3093 263.809 58.088 263.809 64.488V97H243.841V28.136H262.913V37.224ZM331.121 98.024C323.782 98.024 317.169 96.5307 311.281 93.544C305.478 90.472 300.913 86.248 297.585 80.872C294.342 75.496 292.721 69.3947 292.721 62.568C292.721 55.7413 294.342 49.64 297.585 44.264C300.913 38.888 305.478 34.7067 311.281 31.72C317.169 28.648 323.782 27.112 331.121 27.112C338.374 27.112 344.689 28.648 350.065 31.72C355.526 34.7067 359.494 39.016 361.969 44.648L346.481 52.968C342.897 46.6533 337.734 43.496 330.993 43.496C325.788 43.496 321.478 45.2027 318.065 48.616C314.652 52.0293 312.945 56.68 312.945 62.568C312.945 68.456 314.652 73.1067 318.065 76.52C321.478 79.9333 325.788 81.64 330.993 81.64C337.82 81.64 342.982 78.4827 346.481 72.168L361.969 80.616C359.494 86.0773 355.526 90.344 350.065 93.416C344.689 96.488 338.374 98.024 331.121 98.024ZM442.479 28.136V97H423.407V89.064C418.458 95.0373 411.29 98.024 401.903 98.024C395.418 98.024 389.53 96.5733 384.239 93.672C379.034 90.7707 374.938 86.632 371.951 81.256C368.964 75.88 367.471 69.6507 367.471 62.568C367.471 55.4853 368.964 49.256 371.951 43.88C374.938 38.504 379.034 34.3653 384.239 31.464C389.53 28.5627 395.418 27.112 401.903 27.112C410.692 27.112 417.562 29.8853 422.511 35.432V28.136H442.479ZM405.359 81.64C410.394 81.64 414.575 79.9333 417.903 76.52C421.231 73.0213 422.895 68.3707 422.895 62.568C422.895 56.7653 421.231 52.1573 417.903 48.744C414.575 45.2453 410.394 43.496 405.359 43.496C400.239 43.496 396.015 45.2453 392.687 48.744C389.359 52.1573 387.695 56.7653 387.695 62.568C387.695 68.3707 389.359 73.0213 392.687 76.52C396.015 79.9333 400.239 81.64 405.359 81.64ZM538.944 5.864C547.221 5.864 554.432 7.48533 560.576 10.728C566.72 13.9707 571.499 18.7493 574.912 25.064C578.325 31.3787 580.032 39.016 580.032 47.976V97H559.296V75.496H518.336V97H497.856V47.976C497.856 39.016 499.563 31.3787 502.976 25.064C506.389 18.7493 511.168 13.9707 517.312 10.728C523.456 7.48533 530.667 5.864 538.944 5.864ZM559.296 58.856V46.056C559.296 38.632 557.461 33.0427 553.792 29.288C550.123 25.448 545.131 23.528 538.816 23.528C532.416 23.528 527.381 25.448 523.712 29.288C520.128 33.0427 518.336 38.632 518.336 46.056V58.856H559.296ZM599.091 28.136H619.059V97H599.091V28.136ZM614.707 0.871994H636.211L613.043 19.304H597.427L614.707 0.871994ZM635.031 7.39999H658.839L654.871 65.896H638.999L635.031 7.39999ZM646.935 98.024C643.436 98.024 640.492 96.9147 638.103 94.696C635.799 92.392 634.647 89.6187 634.647 86.376C634.647 83.1333 635.799 80.4453 638.103 78.312C640.407 76.0933 643.351 74.984 646.935 74.984C650.519 74.984 653.463 76.0933 655.767 78.312C658.071 80.4453 659.223 83.1333 659.223 86.376C659.223 89.6187 658.028 92.392 655.639 94.696C653.335 96.9147 650.434 98.024 646.935 98.024Z" fill="url(#paint0_linear_9_3)"/>
<defs>
<linearGradient id="paint0_linear_9_3" x1="-10" y1="51" x2="666" y2="51" gradientUnits="userSpaceOnUse">
<stop stop-color="#AE2012"/>
<stop offset="1" stop-color="#EE9B00"/>
</linearGradient>
</defs>
</svg>
