<svg width="137" height="92" viewBox="0 0 137 92" fill="none" xmlns="http://www.w3.org/2000/svg">
<path d="M102.896 0.863998C113.477 0.863998 121.712 3.97866 127.6 10.208C133.488 16.352 136.432 25.2693 136.432 36.96V92H115.696V37.6C115.696 31.2853 114.032 26.5493 110.704 23.392C107.461 20.1493 103.152 18.528 97.776 18.528C91.888 18.528 87.1947 20.2347 83.696 23.648C80.1973 26.976 78.448 32.0533 78.448 38.88V92H57.712V37.6C57.712 31.2853 56.176 26.5493 53.104 23.392C50.032 20.1493 45.8507 18.528 40.56 18.528C34.7573 18.528 30.1067 20.2347 26.608 23.648C23.1093 26.976 21.36 32.0533 21.36 38.88V92H0.624001V2.39999H20.72V13.408C23.4507 9.39733 27.0773 6.32533 31.6 4.19199C36.1227 1.97333 41.328 0.863998 47.216 0.863998C53.36 0.863998 58.736 2.016 63.344 4.31999C67.952 6.53866 71.4933 9.78133 73.968 14.048C77.04 9.78133 81.0507 6.53866 86 4.31999C91.0347 2.016 96.6667 0.863998 102.896 0.863998Z" fill="url(#paint0_linear_11_2)"/>
<defs>
<linearGradient id="paint0_linear_11_2" x1="-10" y1="46" x2="147" y2="46" gradientUnits="userSpaceOnUse">
<stop stop-color="#AE2012"/>
<stop offset="1" stop-color="#EE9B00"/>
</linearGradient>
</defs>
</svg>
